<?xml version="1.0" encoding="UTF-8" standalone="no"?>
<!-- Created with Inkscape (http://www.inkscape.org/) -->

<svg
   width="4.2651954mm"
   height="3.9823413mm"
   viewBox="0 0 4.2651954 3.9823413"
   version="1.1"
   id="svg24891"
   inkscape:version="1.2 (dc2aedaf03, 2022-05-15)"
   sodipodi:docname="linkdin.svg"
   xmlns:inkscape="http://www.inkscape.org/namespaces/inkscape"
   xmlns:sodipodi="http://sodipodi.sourceforge.net/DTD/sodipodi-0.dtd"
   xmlns="http://www.w3.org/2000/svg"
   xmlns:svg="http://www.w3.org/2000/svg">
  <sodipodi:namedview
     id="namedview24893"
     pagecolor="#ffffff"
     bordercolor="#666666"
     borderopacity="1.0"
     inkscape:showpageshadow="2"
     inkscape:pageopacity="0.0"
     inkscape:pagecheckerboard="0"
     inkscape:deskcolor="#d1d1d1"
     inkscape:document-units="mm"
     showgrid="false"
     inkscape:zoom="54.08146"
     inkscape:cx="8.0619125"
     inkscape:cy="7.5256844"
     inkscape:window-width="1920"
     inkscape:window-height="1017"
     inkscape:window-x="1912"
     inkscape:window-y="-8"
     inkscape:window-maximized="1"
     inkscape:current-layer="layer1" />
  <defs
     id="defs24888">
    <filter
       style="color-interpolation-filters:sRGB"
       inkscape:label="Drop Shadow"
       id="filter2114"
       x="-0.20249888"
       y="-0.16653167"
       width="1.2567121"
       height="1.2230397"
       inkscape:auto-region="true">
      <feFlood
         flood-opacity="0.58709677419354833"
         flood-color="rgb(0,0,0)"
         result="flood"
         id="feFlood2104" />
      <feComposite
         in="flood"
         in2="SourceGraphic"
         operator="in"
         result="composite1"
         id="feComposite2106" />
      <feGaussianBlur
         in="composite1"
         stdDeviation="0.1"
         result="blur"
         id="feGaussianBlur2108" />
      <feOffset
         dx="-0.65645514223194823"
         dy="-0.46729"
         result="offset"
         id="feOffset2110" />
      <feComposite
         in="SourceGraphic"
         in2="offset"
         operator="over"
         result="composite2"
         id="feComposite2112" />
    </filter>
  </defs>
  <g
     inkscape:label="Calque 1"
     inkscape:groupmode="layer"
     id="layer1"
     transform="translate(-90.480301,-142.07335)">
    <g
       id="g3407"
       style="filter:url(#filter2114)"
       transform="matrix(0.76665014,0,0,0.76665014,110.99063,-81.59865)">
      <rect
         style="opacity:1;fill:#00abff;fill-opacity:1;stroke:none;stroke-width:0.034;stroke-miterlimit:4;stroke-dasharray:none"
         id="rect3265"
         width="3.9968233"
         height="3.8064981"
         x="-25.661682"
         y="292.74533" />
      <path
         style="opacity:1;fill:#ffffff;fill-opacity:1;stroke:none;stroke-width:0.122514;stroke-miterlimit:4;stroke-dasharray:none"
         d="m -25.507438,296.69371 c -0.02134,-0.005 -0.04759,-0.009 -0.05831,-0.009 -0.01079,-1.2e-4 -0.02501,-0.003 -0.03176,-0.005 -0.0069,-0.003 -0.02807,-0.0138 -0.04743,-0.0206 -0.03945,-0.0184 -0.05783,-0.0303 -0.09879,-0.0698 -0.03954,-0.0378 -0.06001,-0.0629 -0.06001,-0.0733 0,-0.005 -0.0037,-0.0138 -0.008,-0.0161 -0.01124,-0.0115 -0.02648,-0.0509 -0.03644,-0.0959 -0.0099,-0.0445 -0.01193,-3.58097 -0.0022,-3.63677 0.0032,-0.0184 0.0101,-0.043 0.0156,-0.0539 0.0055,-0.0115 0.01675,-0.0355 0.02538,-0.054 0.0092,-0.0184 0.03718,-0.0541 0.06568,-0.0822 0.06005,-0.0583 0.11529,-0.0858 0.211718,-0.10484 0.06444,-0.0138 0.116184,-0.0138 1.899149,-0.0115 1.915575,10e-4 1.881821,10e-4 1.946844,0.0294 0.01239,0.005 0.0243,0.009 0.0268,0.009 0.0117,0 0.08576,0.0507 0.113386,0.0782 0.03385,0.0335 0.08096,0.10331 0.08096,0.1198 0,0.005 0.0027,0.0138 0.0064,0.0161 0.0034,10e-4 0.0087,0.0184 0.01147,0.0392 0.0025,0.0183 0.008,0.0427 0.01124,0.0511 0.008,0.0207 0.008,3.54358 -7.8e-5,3.55881 -0.0034,0.005 -0.008,0.0271 -0.01079,0.0464 -0.0023,0.0184 -0.0092,0.0436 -0.01514,0.0539 -0.0057,0.0115 -0.01056,0.0236 -0.01056,0.0274 -1.8e-5,0.003 -0.0027,0.009 -0.0064,0.009 -0.0034,0 -0.0083,0.006 -0.01079,0.0161 -0.0064,0.0246 -0.09927,0.1152 -0.131813,0.12943 -0.01515,0.005 -0.02749,0.0161 -0.02749,0.0161 0,0.003 -0.0044,0.005 -0.0101,0.005 -0.0057,0 -0.02065,0.003 -0.0335,0.009 -0.01262,0.005 -0.05175,0.0161 -0.08667,0.0206 -0.05707,0.009 -0.24649,0.0115 -1.876421,0.0115 -1.511541,-5.1e-4 -1.819383,-10e-4 -1.851732,-0.009 z m 0.914505,-0.45309 c 0.02694,-0.003 0.0425,-0.009 0.06058,-0.0254 0.05189,-0.045 0.04778,0.0482 0.04778,-1.08791 0,-0.99076 -3.97e-4,-1.02162 -0.01331,-1.04745 -0.01721,-0.034 -0.04229,-0.0546 -0.08169,-0.0673 -0.02602,-0.009 -0.07366,-0.009 -0.287218,-0.009 -0.140809,0.001 -0.266352,0.005 -0.278964,0.009 -0.03105,0.009 -0.06207,0.0378 -0.07922,0.0751 -0.01377,0.0303 -0.01446,0.043 -0.01446,1.03453 7e-6,0.93963 7.96e-4,1.00568 0.01239,1.03422 0.02111,0.0523 0.04353,0.0736 0.08502,0.0812 0.03238,0.005 0.499436,0.006 0.549077,10e-4 z m 1.075637,8e-5 c 0.03165,-0.005 0.07431,-0.0401 0.08567,-0.0711 0.0062,-0.0161 0.0094,-0.17877 0.01239,-0.61377 0.0025,-0.42123 0.0062,-0.59679 0.0117,-0.61117 0.0044,-0.0115 0.01469,-0.0399 0.02249,-0.0643 0.02226,-0.0679 0.03302,-0.0941 0.042,-0.10305 0.0044,-0.003 0.008,-0.0115 0.008,-0.0161 0,-0.009 0.05315,-0.0693 0.08004,-0.0923 0.02786,-0.0236 0.09684,-0.06 0.113914,-0.0603 0.0078,-2.3e-4 0.0268,-0.005 0.04232,-0.0115 0.03341,-0.0115 0.108475,-0.0138 0.148151,-0.003 0.01561,0.003 0.03842,0.009 0.05088,0.0115 0.01239,10e-4 0.02634,0.006 0.03084,0.0138 0.0044,0.005 0.01285,0.009 0.01859,0.009 0.01836,0 0.08257,0.0528 0.107717,0.0881 0.006,0.009 0.01469,0.0184 0.0195,0.0239 0.0048,0.005 0.0087,0.0138 0.0087,0.0161 0,0.003 0.0041,0.0161 0.0096,0.026 0.01629,0.0298 0.02738,0.0638 0.03093,0.0923 0.0019,0.0161 0.0071,0.0315 0.01124,0.0363 0.006,0.006 0.0087,0.17739 0.0099,0.62471 0.0021,0.67903 -9.8e-4,0.6352 0.04828,0.67937 l 0.02634,0.0239 0.272096,0.001 c 0.32852,0.003 0.350463,10e-4 0.381011,-0.0277 0.04594,-0.0431 0.04378,-0.005 0.03995,-0.69046 -0.0034,-0.6011 -0.008,-0.76026 -0.02442,-0.81727 -0.0041,-0.0161 -0.0078,-0.0395 -0.008,-0.0546 -1.01e-4,-0.0161 -0.0023,-0.0298 -0.0055,-0.0323 -0.003,-0.003 -0.0092,-0.0234 -0.01331,-0.0433 -0.01331,-0.0627 -0.03132,-0.1175 -0.04922,-0.15077 -0.0055,-0.009 -0.0096,-0.0236 -0.0096,-0.0277 0,-0.005 -0.0048,-0.0161 -0.01056,-0.0184 -0.006,-0.003 -0.01056,-0.0138 -0.01056,-0.0184 0,-0.0115 -0.04232,-0.0789 -0.05085,-0.0826 -0.003,-10e-4 -0.0057,-0.005 -0.0057,-0.009 0,-0.0138 -0.07029,-0.0889 -0.131216,-0.1409 -0.03708,-0.0317 -0.150034,-0.0936 -0.17133,-0.0944 -0.0062,-1.1e-4 -0.01767,-0.003 -0.02506,-0.0115 -0.0076,-0.005 -0.0218,-0.009 -0.0321,-0.009 -0.0099,0 -0.02134,-0.003 -0.0251,-0.005 -0.0087,-0.009 -0.0761,-0.0206 -0.14425,-0.0277 -0.135278,-0.0161 -0.387026,0.001 -0.435999,0.0266 -0.008,0.003 -0.02203,0.006 -0.03128,0.006 -0.0092,0 -0.02272,0.003 -0.03047,0.009 -0.0076,0.005 -0.0179,0.0115 -0.02272,0.0115 -0.01056,2.3e-4 -0.09438,0.0392 -0.09998,0.0464 -0.0019,10e-4 -0.0179,0.0138 -0.03543,0.024 -0.03428,0.0207 -0.148152,0.12851 -0.148152,0.13975 0,0.003 -0.0032,0.005 -0.0071,0.003 -0.0039,-10e-4 -0.0071,-0.0349 -0.0071,-0.0744 0,-0.0395 -0.003,-0.0721 -0.0071,-0.0744 -0.0037,-10e-4 -0.0071,-0.0115 -0.0071,-0.0184 0,-0.0184 -0.05211,-0.0658 -0.07075,-0.0658 -0.0073,0 -0.01514,-0.003 -0.01744,-0.005 -0.006,-0.009 -0.54426,-0.009 -0.550229,0 -0.0023,0.003 -0.01124,0.006 -0.01974,0.006 -0.01928,2.6e-4 -0.03892,0.0161 -0.06343,0.0503 l -0.01905,0.0269 v 1.03261 c 0,1.02348 1.24e-4,1.03282 0.01446,1.05462 0.01721,0.0266 0.05439,0.0546 0.07788,0.0589 0.02616,0.003 0.535552,0.005 0.564774,7.4e-4 z m -1.226873,-2.41904 c 0.01813,-0.003 0.03887,-0.0115 0.04585,-0.0161 0.0071,-0.003 0.02538,-0.0115 0.04092,-0.0184 0.07066,-0.0289 0.154026,-0.0973 0.199119,-0.16316 0.01951,-0.0283 0.05833,-0.10944 0.05833,-0.12185 0,-0.006 0.0034,-0.0161 0.008,-0.0207 0.01446,-0.0138 0.01079,-0.19368 -0.0044,-0.23806 -0.0071,-0.0206 -0.0156,-0.0399 -0.01882,-0.0436 -0.0032,-0.003 -0.0062,-0.0115 -0.0062,-0.0161 0,-0.0321 -0.137779,-0.19138 -0.165914,-0.19138 -0.0057,0 -0.01056,-10e-4 -0.01056,-0.005 0,-0.006 -0.08248,-0.0471 -0.109347,-0.0528 -0.01147,-10e-4 -0.02531,-0.006 -0.03036,-0.0115 -0.0055,-0.003 -0.05388,-0.006 -0.116392,-0.006 -0.08642,-2.3e-4 -0.114028,10e-4 -0.142438,0.0138 -0.09893,0.0341 -0.176286,0.0831 -0.229273,0.14366 -0.01744,0.0206 -0.033,0.0401 -0.03456,0.0448 -0.0015,0.003 -0.0051,0.009 -0.0073,0.0115 -0.008,0.005 -0.03559,0.0609 -0.03559,0.0713 0,0.005 -0.0023,0.009 -0.0055,0.009 -0.0117,0 -0.02481,0.0687 -0.02767,0.14871 -0.0037,0.10765 0.008,0.15076 0.07364,0.26647 0.01124,0.0206 0.11871,0.12274 0.139707,0.13378 0.0089,0.003 0.03151,0.0161 0.05026,0.0243 0.01882,0.009 0.03968,0.0184 0.04656,0.0206 0.0071,0.003 0.0268,0.009 0.04427,0.0115 0.01744,10e-4 0.03357,0.006 0.0358,0.0115 0.0055,0.009 0.158639,0.003 0.201597,-0.005 z"
         id="path4605"
         inkscape:connector-curvature="0" />
    </g>
  </g>
</svg>
