<?xml version="1.0" encoding="UTF-8" standalone="no"?>
<!-- Created with Inkscape (http://www.inkscape.org/) -->

<svg
   width="26.895685mm"
   height="26.88059mm"
   viewBox="0 0 26.895685 26.88059"
   version="1.1"
   id="svg24991"
   inkscape:version="1.2 (dc2aedaf03, 2022-05-15)"
   sodipodi:docname="SF_logo.svg"
   xmlns:inkscape="http://www.inkscape.org/namespaces/inkscape"
   xmlns:sodipodi="http://sodipodi.sourceforge.net/DTD/sodipodi-0.dtd"
   xmlns="http://www.w3.org/2000/svg"
   xmlns:svg="http://www.w3.org/2000/svg">
  <sodipodi:namedview
     id="namedview24993"
     pagecolor="#ffffff"
     bordercolor="#666666"
     borderopacity="1.0"
     inkscape:showpageshadow="2"
     inkscape:pageopacity="0.0"
     inkscape:pagecheckerboard="0"
     inkscape:deskcolor="#d1d1d1"
     inkscape:document-units="mm"
     showgrid="false"
     inkscape:zoom="0.74564394"
     inkscape:cx="63.032766"
     inkscape:cy="101.92532"
     inkscape:window-width="1920"
     inkscape:window-height="1017"
     inkscape:window-x="1912"
     inkscape:window-y="-8"
     inkscape:window-maximized="1"
     inkscape:current-layer="layer1" />
  <defs
     id="defs24988" />
  <g
     inkscape:label="Calque 1"
     inkscape:groupmode="layer"
     id="layer1"
     transform="translate(-88.390871,-121.75326)">
    <g
       id="g3547-7-6"
       transform="matrix(0.05409597,0,0,0.05408001,105.58236,119.5563)"
       inkscape:export-filename="SF_logo.png"
       inkscape:export-xdpi="94.440002"
       inkscape:export-ydpi="94.440002">
      <path
         style="fill:#f0af12;fill-opacity:1;fill-rule:evenodd;stroke:none;stroke-width:9.64285;stroke-linecap:butt;stroke-linejoin:round;stroke-miterlimit:4;stroke-dasharray:none;stroke-dashoffset:0;stroke-opacity:1;paint-order:stroke fill markers"
         d="m -160.75032,144.32415 c -3.8837,-4.58875 -36.4236,-62.135885 -36.4236,-64.415484 0,-1.120356 0.90715,-3.091637 2.0159,-4.380637 2.50179,-2.908502 7.37692,-3.249983 9.78307,-0.685257 1.68596,1.797085 15.60292,25.194488 27.54362,46.306748 0.92591,1.6371 3.38747,5.93277 5.47012,9.54591 4.71478,8.17961 4.59387,9.69986 -1.01478,12.75841 -5.03453,2.74547 -5.71893,2.82625 -7.37433,0.87031 z"
         id="path10836-2-1-3"
         inkscape:connector-curvature="0"
         inkscape:export-xdpi="126.492"
         inkscape:export-ydpi="126.492" />
      <path
         style="fill:#f0af12;fill-opacity:1;fill-rule:evenodd;stroke:none;stroke-width:9.64285;stroke-linecap:butt;stroke-linejoin:round;stroke-miterlimit:4;stroke-dasharray:none;stroke-dashoffset:0;stroke-opacity:1;paint-order:stroke fill markers"
         d="m -210.59859,158.30426 c -14.92817,-15.00757 -15.49047,-15.69678 -15.49047,-18.98677 0,-7.05024 6.62551,-9.37287 12.51448,-4.38706 7.74494,6.55714 28.42423,27.64484 28.87773,29.44805 0.38994,1.55044 -0.30508,2.80122 -3.18976,5.74051 -2.02858,2.06697 -4.4833,3.75814 -5.45492,3.75814 -1.16022,0 -7.08367,-5.34537 -17.25706,-15.57287 z"
         id="path10838-7-3-0"
         inkscape:connector-curvature="0"
         inkscape:export-xdpi="126.492"
         inkscape:export-ydpi="126.492" />
      <path
         style="fill:#f0af12;fill-opacity:1;fill-rule:evenodd;stroke:none;stroke-width:9.64285;stroke-linecap:butt;stroke-linejoin:round;stroke-miterlimit:4;stroke-dasharray:none;stroke-dashoffset:0;stroke-opacity:1;paint-order:stroke fill markers"
         d="m -223.19709,208.63834 c -8.42616,-4.39636 -56.84143,-32.87987 -59.2285,-34.84511 -3.63938,-2.99627 -3.78948,-7.69041 -0.34074,-10.65688 1.28899,-1.10875 3.18336,-2.01555 4.2097,-2.01511 1.93817,7.1e-4 20.68159,10.44301 48.85318,27.21667 18.07518,10.76215 17.91959,10.58063 14.57272,17.00173 -2.49832,4.79314 -4.01406,5.413 -8.06636,3.2987 z"
         id="path10840-2-3-9"
         inkscape:connector-curvature="0"
         inkscape:export-xdpi="126.492"
         inkscape:export-ydpi="126.492" />
      <path
         style="fill:#f0af12;fill-opacity:1;fill-rule:evenodd;stroke:none;stroke-width:9.64285;stroke-linecap:butt;stroke-linejoin:round;stroke-miterlimit:4;stroke-dasharray:none;stroke-dashoffset:0;stroke-opacity:1;paint-order:stroke fill markers"
         d="m -241.8223,250.73094 c -2.33872,-0.66553 -5.59168,-1.58402 -7.22878,-2.0411 -1.63711,-0.45708 -7.18626,-2.01297 -12.33146,-3.45754 -5.14519,-1.44456 -10.512,-2.91392 -11.92624,-3.26524 -3.68883,-0.91636 -6.18922,-2.40148 -7.18928,-4.27012 -2.40162,-4.48747 0.67832,-10.24176 5.48182,-10.24176 2.54265,0 14.53646,2.90144 35.49295,8.58616 8.12199,2.20319 10.21774,4.04793 8.41838,7.41008 -0.5155,0.96321 -0.93727,2.46968 -0.93727,3.34772 0,1.86646 -3.00338,5.35889 -4.49796,5.2304 -0.56646,-0.0487 -2.94344,-0.63307 -5.28216,-1.2986 z"
         id="path10842-2-2-0"
         inkscape:connector-curvature="0"
         inkscape:export-xdpi="126.492"
         inkscape:export-ydpi="126.492" />
      <path
         style="fill:#f0af12;fill-opacity:1;fill-rule:evenodd;stroke:none;stroke-width:9.64285;stroke-linecap:butt;stroke-linejoin:round;stroke-miterlimit:4;stroke-dasharray:none;stroke-dashoffset:0;stroke-opacity:1;paint-order:stroke fill markers"
         d="m -314.73717,295.01002 c -3.91516,-2.12435 -4.0966,-7.17698 -0.40265,-11.21285 l 1.75139,-1.9135 h 37.22115 c 26.41817,0 37.39096,0.27475 37.80621,0.94663 0.92128,1.49066 1.12907,9.37722 0.30422,11.54672 l -0.74679,1.96422 -36.8028,-0.0341 c -30.89293,-0.0285 -37.17663,-0.23689 -39.13073,-1.29717 z"
         id="path10844-3-4-4"
         inkscape:connector-curvature="0"
         inkscape:export-xdpi="126.492"
         inkscape:export-ydpi="126.492" />
      <path
         style="fill:#f0af12;fill-opacity:1;fill-rule:evenodd;stroke:none;stroke-width:9.64285;stroke-linecap:butt;stroke-linejoin:round;stroke-miterlimit:4;stroke-dasharray:none;stroke-dashoffset:0;stroke-opacity:1;paint-order:stroke fill markers"
         d="m -278.8149,349.20145 c -1.6895,-1.68951 -2.5531,-3.40636 -2.5531,-5.07564 0,-4.9997 2.08172,-6.15785 19.56024,-10.88216 16.44083,-4.44384 23.86579,-6.28638 25.33241,-6.28638 2.27745,0 3.51097,1.69572 4.80676,6.60781 1.40121,5.31173 0.56973,6.53881 -5.55181,8.19328 -2.53104,0.68406 -8.23755,2.22974 -12.68112,3.43484 -26.35824,7.14835 -25.8445,7.07713 -28.91338,4.00825 z"
         id="path10846-9-3-9"
         inkscape:connector-curvature="0"
         inkscape:export-xdpi="126.492"
         inkscape:export-ydpi="126.492" />
      <path
         style="fill:#f0af12;fill-opacity:1;fill-rule:evenodd;stroke:none;stroke-width:9.64285;stroke-linecap:butt;stroke-linejoin:round;stroke-miterlimit:4;stroke-dasharray:none;stroke-dashoffset:0;stroke-opacity:1;paint-order:stroke fill markers"
         d="m -282.59715,415.19096 c -3.18683,-2.80438 -3.66964,-6.61816 -1.18813,-9.38503 3.6524,-4.07241 62.805,-37.68283 64.90296,-36.87776 1.42475,0.54673 6.40039,7.94422 6.40039,9.51573 0,1.41654 -2.26969,3.25064 -8.29185,6.7005 -2.9234,1.67471 -7.5158,4.32299 -10.20534,5.88508 -34.51179,20.0445 -45.53362,26.07499 -47.65686,26.07499 -0.9827,0 -2.76523,-0.86108 -3.96117,-1.91351 z"
         id="path10848-8-2-5"
         inkscape:connector-curvature="0"
         inkscape:export-xdpi="126.492"
         inkscape:export-ydpi="126.492" />
      <path
         style="fill:#f0af12;fill-opacity:1;fill-rule:evenodd;stroke:none;stroke-width:9.64285;stroke-linecap:butt;stroke-linejoin:round;stroke-miterlimit:4;stroke-dasharray:none;stroke-dashoffset:0;stroke-opacity:1;paint-order:stroke fill markers"
         d="m -220.66809,446.2139 c -2.76803,-0.43622 -5.70445,-4.06707 -5.70445,-7.05348 0,-2.26747 2.16774,-4.7908 16.07919,-18.71672 8.84356,-8.85275 16.70396,-16.09591 17.46756,-16.09591 1.79494,0 8.40344,7.15599 8.42529,9.12328 0.0198,1.78776 -30.47357,32.10933 -32.83951,32.65442 -0.89114,0.20532 -2.43378,0.2451 -3.42808,0.0884 z"
         id="path10850-6-1-2"
         inkscape:connector-curvature="0"
         inkscape:export-xdpi="126.492"
         inkscape:export-ydpi="126.492" />
      <path
         style="fill:#f0af12;fill-opacity:1;fill-rule:evenodd;stroke:none;stroke-width:9.64285;stroke-linecap:butt;stroke-linejoin:round;stroke-miterlimit:4;stroke-dasharray:none;stroke-dashoffset:0;stroke-opacity:1;paint-order:stroke fill markers"
         d="m -194.68801,503.06485 c -2.9582,-2.9582 -3.07679,-4.5023 -0.69178,-9.00768 4.6872,-8.85435 7.97822,-14.87426 10.68647,-19.54765 15.76179,-27.19871 24.01469,-40.85763 25.10057,-41.54259 0.94109,-0.59362 2.61317,-0.0649 6.09552,1.92752 5.64212,3.22809 5.90762,4.42704 2.36942,10.69993 -3.69759,6.55546 -18.5499,32.35468 -19.90991,34.58455 -0.66574,1.09152 -4.02236,6.70273 -7.45917,12.46933 -3.4368,5.7666 -7.02541,11.02873 -7.97466,11.69362 -2.68053,1.87751 -5.50015,1.43928 -8.21646,-1.27703 z"
         id="path10852-0-5-6"
         inkscape:connector-curvature="0"
         inkscape:export-xdpi="126.492"
         inkscape:export-ydpi="126.492" />
      <path
         style="fill:#f0af12;fill-opacity:1;fill-rule:evenodd;stroke:none;stroke-width:9.64285;stroke-linecap:butt;stroke-linejoin:round;stroke-miterlimit:4;stroke-dasharray:none;stroke-dashoffset:0;stroke-opacity:1;paint-order:stroke fill markers"
         d="m -128.61525,499.47218 c -2.47985,-2.13321 -2.95771,-4.76423 -1.83074,-10.07987 0.60882,-2.87164 5.60259,-21.56383 7.15691,-26.78903 0.41742,-1.40323 1.23968,-4.38463 1.82723,-6.62533 0.58757,-2.24069 1.73331,-4.4299 2.5461,-4.86488 1.86591,-0.99861 10.08647,1.5502 11.30302,3.50453 0.87318,1.40273 -0.33609,7.37429 -4.88934,24.14414 -5.71998,21.06699 -5.89675,21.4306 -10.80589,22.22725 -2.34843,0.38109 -3.47541,0.059 -5.30729,-1.51681 z"
         id="path10854-0-5-5"
         inkscape:connector-curvature="0"
         inkscape:export-xdpi="126.492"
         inkscape:export-ydpi="126.492" />
      <path
         style="fill:#f0af12;fill-opacity:1;fill-rule:evenodd;stroke:none;stroke-width:9.64285;stroke-linecap:butt;stroke-linejoin:round;stroke-miterlimit:4;stroke-dasharray:none;stroke-dashoffset:0;stroke-opacity:1;paint-order:stroke fill markers"
         d="m -72.382637,537.27923 c -3.824756,-0.99749 -4.028057,-3.10325 -4.028057,-41.72148 0,-27.2093 0.258536,-36.69983 1.020532,-37.46182 1.228304,-1.22831 8.215521,-1.34696 11.255558,-0.19114 l 2.181475,0.82939 -0.02706,37.22803 c -0.02026,27.92331 -0.285984,37.56529 -1.06306,38.5774 -2.150231,2.80059 -5.423687,3.76083 -9.339405,2.73962 z"
         id="path10856-3-4-9"
         inkscape:connector-curvature="0"
         inkscape:export-xdpi="126.492"
         inkscape:export-ydpi="126.492" />
      <path
         style="fill:#f0af12;fill-opacity:1;fill-rule:evenodd;stroke:none;stroke-width:9.64285;stroke-linecap:butt;stroke-linejoin:round;stroke-miterlimit:4;stroke-dasharray:none;stroke-dashoffset:0;stroke-opacity:1;paint-order:stroke fill markers"
         d="m -18.273985,500.05674 c -2.596841,-1.8189 -3.553766,-4.71602 -11.045151,-33.43972 l -3.027542,-11.60827 1.874674,-1.51801 c 1.031072,-0.83491 2.579671,-1.51802 3.441335,-1.51802 0.861656,0 2.493008,-0.42208 3.625207,-0.93794 2.608564,-1.18854 5.298173,0.10266 5.885958,2.82567 0.230232,1.0666 1.261949,5.00087 2.292702,8.74283 4.564284,16.5698 7.7021744,29.74982 7.7021744,32.35134 0,5.06608 -6.4380574,8.12188 -10.7493574,5.10212 z"
         id="path10858-0-4-8"
         inkscape:connector-curvature="0"
         inkscape:export-xdpi="126.492"
         inkscape:export-ydpi="126.492" />
      <path
         style="fill:#f0af12;fill-opacity:1;fill-rule:evenodd;stroke:none;stroke-width:9.64285;stroke-linecap:butt;stroke-linejoin:round;stroke-miterlimit:4;stroke-dasharray:none;stroke-dashoffset:0;stroke-opacity:1;paint-order:stroke fill markers"
         d="m 47.568369,504.48772 c -1.608048,-1.25559 -4.93739,-6.69651 -18.238057,-29.80523 -5.43915,-9.45003 -11.938265,-20.7354 -14.442479,-25.07859 -2.504214,-4.34319 -4.553113,-8.64617 -4.553113,-9.56217 0,-2.20584 6.374677,-6.7788 9.449591,-6.7788 2.487866,0 3.392475,1.27494 14.180237,19.98546 1.618107,2.80647 3.716085,6.44212 4.662188,8.07922 9.604018,16.61859 20.183365,36.34881 20.183365,37.64149 0,0.88541 -1.118663,2.7285 -2.485918,4.09575 -2.6797,2.6797 -6.376724,3.28048 -8.755814,1.42287 z"
         id="path10860-6-9-1"
         inkscape:connector-curvature="0"
         inkscape:export-xdpi="126.492"
         inkscape:export-ydpi="126.492" />
      <path
         style="fill:#f0af12;fill-opacity:1;fill-rule:evenodd;stroke:none;stroke-width:9.64285;stroke-linecap:butt;stroke-linejoin:round;stroke-miterlimit:4;stroke-dasharray:none;stroke-dashoffset:0;stroke-opacity:1;paint-order:stroke fill markers"
         d="m 61.62628,430.52913 c -8.56507,-8.51975 -15.572857,-16.13592 -15.572857,-16.92482 0,-1.78488 7.461267,-9.25652 9.243682,-9.25652 1.326272,0 24.579749,22.79873 29.664186,29.08407 5.003498,6.18529 2.731252,12.58774 -4.46742,12.58774 -3.13544,0 -4.047621,-0.7489 -18.867591,-15.49047 z"
         id="path10862-6-0-2"
         inkscape:connector-curvature="0"
         inkscape:export-xdpi="126.492"
         inkscape:export-ydpi="126.492" />
      <path
         style="fill:#f0af12;fill-opacity:1;fill-rule:evenodd;stroke:none;stroke-width:9.64285;stroke-linecap:butt;stroke-linejoin:round;stroke-miterlimit:4;stroke-dasharray:none;stroke-dashoffset:0;stroke-opacity:1;paint-order:stroke fill markers"
         d="m 134.92495,415.51267 c -1.40324,-0.85972 -14.76912,-8.58331 -29.70197,-17.16353 -14.932845,-8.58021 -28.109819,-16.42545 -29.282158,-17.43386 -2.002674,-1.72262 -2.06172,-2.00201 -0.976702,-4.62148 1.487393,-3.59088 4.919364,-7.66471 6.457076,-7.66471 2.670378,0 61.553624,34.41429 64.346924,37.60754 2.19344,2.50748 1.8309,5.55338 -0.99763,8.38192 -2.90871,2.9087 -6.08635,3.19728 -9.84554,0.89412 z"
         id="path10864-2-4-5"
         inkscape:connector-curvature="0"
         inkscape:export-xdpi="126.492"
         inkscape:export-ydpi="126.492" />
      <path
         style="fill:#f0af12;fill-opacity:1;fill-rule:evenodd;stroke:none;stroke-width:9.64285;stroke-linecap:butt;stroke-linejoin:round;stroke-miterlimit:4;stroke-dasharray:none;stroke-dashoffset:0;stroke-opacity:1;paint-order:stroke fill markers"
         d="m 130.67272,350.35967 c -25.178,-6.34998 -37.023451,-9.96144 -37.871685,-11.54639 -0.546199,-1.02057 -0.321428,-3.07891 0.705869,-6.46408 1.893161,-6.23837 2.587172,-6.36869 15.592136,-2.92773 5.31709,1.40684 11.7723,3.11739 14.34489,3.8012 14.45222,3.84151 19.56025,6.47476 19.56025,10.08353 0,2.6884 -2.51624,6.64184 -4.77354,7.50007 -2.44931,0.93122 -1.9863,0.95858 -7.55792,-0.4466 z"
         id="path10866-6-1-5"
         inkscape:connector-curvature="0"
         inkscape:export-xdpi="126.492"
         inkscape:export-ydpi="126.492" />
      <path
         style="fill:#f0af12;fill-opacity:1;fill-rule:evenodd;stroke:none;stroke-width:9.64285;stroke-linecap:butt;stroke-linejoin:round;stroke-miterlimit:4;stroke-dasharray:none;stroke-dashoffset:0;stroke-opacity:1;paint-order:stroke fill markers"
         d="m 99.661393,294.69626 c -1.136237,-2.12308 -1.136237,-9.04453 0,-11.16761 0.849137,-1.58663 2.159277,-1.64498 36.939007,-1.64498 20.85779,0 36.9595,0.34251 38.19563,0.81249 1.17535,0.44686 2.78645,1.80366 3.58021,3.0151 1.22829,1.8746 1.29378,2.70141 0.43972,5.55198 -0.55192,1.84215 -1.73024,3.7383 -2.61849,4.21368 -1.023,0.54749 -15.18522,0.86432 -38.63535,0.86432 -35.73055,0 -37.05103,-0.0573 -37.900727,-1.64498 z"
         id="path10868-9-5-8"
         inkscape:connector-curvature="0"
         inkscape:export-xdpi="126.492"
         inkscape:export-ydpi="126.492" />
      <path
         style="fill:#f0af12;fill-opacity:1;fill-rule:evenodd;stroke:none;stroke-width:9.64285;stroke-linecap:butt;stroke-linejoin:round;stroke-miterlimit:4;stroke-dasharray:none;stroke-dashoffset:0;stroke-opacity:1;paint-order:stroke fill markers"
         d="m 95.147712,250.29511 c -0.681899,-1.10222 -1.730963,-3.84707 -2.331242,-6.09967 -0.915595,-3.43582 -0.899835,-4.27699 0.09784,-5.22134 0.654097,-0.61913 6.929773,-2.65676 13.94595,-4.52807 31.62619,-8.43509 32.13927,-8.48571 34.84227,-3.43753 1.58728,2.96445 1.60144,3.28219 0.27045,6.0733 -1.51639,3.17991 -3.81272,4.17658 -18.95426,8.22664 -3.74196,1.0009 -10.24787,2.7584 -14.45758,3.90556 -12.337399,3.36197 -12.018258,3.33625 -13.413428,1.08111 z"
         id="path10870-8-9-1"
         inkscape:connector-curvature="0"
         inkscape:export-xdpi="126.492"
         inkscape:export-ydpi="126.492" />
      <path
         style="fill:#f0af12;fill-opacity:1;fill-rule:evenodd;stroke:none;stroke-width:9.64285;stroke-linecap:butt;stroke-linejoin:round;stroke-miterlimit:4;stroke-dasharray:none;stroke-dashoffset:0;stroke-opacity:1;paint-order:stroke fill markers"
         d="m 76.694629,205.13099 c -2.984992,-5.20493 -3.082004,-5.88507 -1.08824,-7.6295 3.588219,-3.13947 62.822401,-36.38105 64.828511,-36.38105 4.46291,0 8.13303,6.80138 5.68566,10.53653 -2.17237,3.31546 -61.40213,37.93885 -64.901462,37.93885 -1.477044,0 -2.598682,-1.10685 -4.524469,-4.46483 z"
         id="path10872-2-8-8"
         inkscape:connector-curvature="0"
         inkscape:export-xdpi="126.492"
         inkscape:export-ydpi="126.492" />
      <path
         style="fill:#f0af12;fill-opacity:1;fill-rule:evenodd;stroke:none;stroke-width:9.64285;stroke-linecap:butt;stroke-linejoin:round;stroke-miterlimit:4;stroke-dasharray:none;stroke-dashoffset:0;stroke-opacity:1;paint-order:stroke fill markers"
         d="m 49.563514,170.06912 c -1.930553,-2.0944 -3.510091,-4.30816 -3.510091,-4.91946 0,-0.61131 7.198537,-8.27387 15.996758,-17.02791 14.150551,-14.0795 16.314347,-15.91645 18.748451,-15.91645 3.587299,0 6.926607,3.2471 6.926607,6.73532 0,1.61735 -0.981525,3.74594 -2.664847,5.77916 -5.324614,6.43139 -29.126444,29.15735 -30.537692,29.15735 -0.797001,0 -3.028633,-1.71361 -4.959186,-3.80801 z"
         id="path10874-1-7-7"
         inkscape:connector-curvature="0"
         inkscape:export-xdpi="126.492"
         inkscape:export-ydpi="126.492" />
      <path
         style="fill:#f0af12;fill-opacity:1;fill-rule:evenodd;stroke:none;stroke-width:9.64285;stroke-linecap:butt;stroke-linejoin:round;stroke-miterlimit:4;stroke-dasharray:none;stroke-dashoffset:0;stroke-opacity:1;paint-order:stroke fill markers"
         d="m 14.374337,143.26126 c -2.440451,-1.54333 -4.039617,-3.17682 -4.039617,-4.12634 0,-1.99201 12.820675,-25.45543 23.768206,-43.498757 1.277086,-2.104856 4.566288,-7.600551 7.309333,-12.21266 5.588669,-9.396679 7.554369,-11.178606 11.3998,-10.334006 4.296375,0.943638 7.595118,6.836452 5.266114,9.407283 -0.402559,0.444358 -2.569592,4.252226 -4.815637,8.461932 -5.286585,9.908518 -26.32679,46.613778 -29.249557,51.026708 -1.239184,1.87099 -3.005903,3.49825 -3.926045,3.61613 -0.920143,0.11789 -3.490811,-0.93524 -5.712597,-2.34029 z"
         id="path10876-7-5-8"
         inkscape:connector-curvature="0"
         inkscape:export-xdpi="126.492"
         inkscape:export-ydpi="126.492" />
      <path
         style="fill:#f0af12;fill-opacity:1;fill-rule:evenodd;stroke:none;stroke-width:9.64285;stroke-linecap:butt;stroke-linejoin:round;stroke-miterlimit:4;stroke-dasharray:none;stroke-dashoffset:0;stroke-opacity:1;paint-order:stroke fill markers"
         d="m -26.498056,126.52503 c -4.936788,-1.50973 -5.832876,-3.30781 -4.34396,-8.71656 0.588613,-2.13826 2.476051,-9.24554 4.194307,-15.79397 1.718255,-6.548425 3.706706,-13.974872 4.418787,-16.503204 2.248943,-7.985204 7.751983,-10.8571 12.4539918,-6.499426 3.0165768,2.795666 2.9189137,5.484029 -0.6918798,19.046491 -7.006342,26.316429 -8.387416,30.055479 -11.009367,29.806179 -0.512186,-0.0487 -2.772029,-0.65149 -5.021879,-1.33951 z"
         id="path10878-7-7-7"
         inkscape:connector-curvature="0"
         inkscape:export-xdpi="126.492"
         inkscape:export-ydpi="126.492" />
      <path
         style="fill:#f0af12;fill-opacity:1;fill-rule:evenodd;stroke:none;stroke-width:9.64285;stroke-linecap:butt;stroke-linejoin:round;stroke-miterlimit:4;stroke-dasharray:none;stroke-dashoffset:0;stroke-opacity:1;paint-order:stroke fill markers"
         d="m -75.390162,120.12899 c -0.762619,-0.76262 -1.020532,-10.41534 -1.020532,-38.194445 V 44.760642 l 2.706127,-2.277056 c 3.283592,-2.762963 6.908176,-2.432588 9.837941,0.896704 l 1.913497,2.174449 v 36.776854 c 0,27.470297 -0.258246,37.035107 -1.020532,37.797397 -0.570679,0.57068 -3.307286,1.02053 -6.208251,1.02053 -2.900965,0 -5.637571,-0.44985 -6.20825,-1.02053 z"
         id="path10880-7-8-2"
         inkscape:connector-curvature="0"
         inkscape:export-xdpi="126.492"
         inkscape:export-ydpi="126.492" />
      <path
         style="fill:#f0af12;fill-opacity:1;fill-rule:evenodd;stroke:none;stroke-width:9.64285;stroke-linecap:butt;stroke-linejoin:round;stroke-miterlimit:4;stroke-dasharray:none;stroke-dashoffset:0;stroke-opacity:1;paint-order:stroke fill markers"
         d="m -119.59053,126.89002 c -1.79426,-2.20296 -11.24866,-38.28839 -11.24866,-42.93374 0,-1.897312 0.70022,-3.555226 2.08745,-4.942455 2.3831,-2.383099 4.61816,-2.621576 8.03072,-0.856876 2.07797,1.074564 2.76878,2.55719 5.44843,11.693625 4.78608,16.318376 8.39069,31.112106 8.09243,33.212216 -0.20618,1.45176 -1.29826,2.25654 -4.52401,3.33383 -5.25852,1.75616 -6.78033,1.85137 -7.88636,0.4934 z"
         id="path10882-6-3-0"
         inkscape:connector-curvature="0"
         inkscape:export-xdpi="126.492"
         inkscape:export-ydpi="126.492" />
      <path
         style="fill:#3b75a7;fill-opacity:1;fill-rule:evenodd;stroke:none;stroke-width:2.87616;stroke-linecap:butt;stroke-linejoin:round;stroke-miterlimit:4;stroke-dasharray:none;stroke-dashoffset:0;stroke-opacity:1;paint-order:stroke fill markers"
         d="m -88.211439,371.65701 c -1.255639,-0.39778 -3.481512,-1.10169 -4.946434,-1.5643 -18.042317,-5.69763 -37.491627,-24.7548 -43.753027,-42.87089 -2.5417,-7.35396 -3.37402,-12.24855 -3.40083,-19.99971 -0.0317,-9.07203 0.0861,-9.21387 6.16176,-7.43712 11.17317,3.26754 20.52457,12.33595 33.78626,32.76374 4.075709,6.27813 8.754612,13.02768 10.397571,14.99908 5.94462,7.13327 17.416496,14.20486 26.867156,16.56174 2.09271,0.52188 7.14968,1.16799 11.237747,1.43571 4.088067,0.26772 7.447127,0.82921 7.46462,1.24771 0.04056,0.97182 -5.951148,3.04596 -13.118638,4.54124 -6.281679,1.31053 -26.894093,1.52729 -30.696185,0.3228 z"
         id="path10886-8-1-1"
         inkscape:connector-curvature="0" />
      <path
         style="fill:#79c65c;fill-opacity:1;fill-rule:evenodd;stroke:none;stroke-width:2.87616;stroke-linecap:butt;stroke-linejoin:round;stroke-miterlimit:4;stroke-dasharray:none;stroke-dashoffset:0;stroke-opacity:1;paint-order:stroke fill markers"
         d="m -58.913563,357.30631 c 0,-10.13828 10.597727,-21.91939 33.102757,-36.79913 15.513105,-10.2568 16.7887085,-11.25708 21.0385234,-16.49785 7.1780117,-8.85178 11.1680283,-19.67945 11.846901,-32.14907 0.2449671,-4.49934 0.7539789,-8.18057 1.1312219,-8.18057 2.2418457,0 5.9287107,14.88728 6.4742307,26.14291 1.102003,22.73706 -6.2429538,38.74346 -25.90833,56.46 -4.201456,3.78517 -14.812746,9.47513 -22.953387,12.30813 -4.121658,1.43431 -7.522043,1.95105 -15.029381,2.28367 l -9.702536,0.42991 z"
         id="path10888-3-8-2"
         inkscape:connector-curvature="0" />
      <path
         style="fill:#79c65c;fill-opacity:1;fill-rule:evenodd;stroke:none;stroke-width:2.87616;stroke-linecap:butt;stroke-linejoin:round;stroke-miterlimit:4;stroke-dasharray:none;stroke-dashoffset:0;stroke-opacity:1;paint-order:stroke fill markers"
         d="m -147.72292,312.95339 c -1.46923,-1.93699 -3.39816,-9.57546 -4.60931,-18.25268 -1.07684,-7.71555 -1.11449,-9.9882 -0.2764,-16.70359 2.51736,-20.1711 11.88055,-35.49247 29.46571,-48.21606 10.36632,-7.50043 21.04961,-11.31494 34.147079,-12.19226 9.756283,-0.65358 10.678538,-0.20143 9.919108,4.86309 -1.005411,6.70424 -5.393016,13.53663 -13.637347,21.23595 -4.94485,4.61793 -22.19567,16.94792 -23.71174,16.94792 -1.23586,0 -10.17878,7.03091 -13.67595,10.75206 -9.80426,10.43224 -13.92199,20.16507 -15.17078,35.85818 -0.51858,6.51733 -0.99476,7.62637 -2.45037,5.70739 z"
         id="path10890-7-3-1"
         inkscape:connector-curvature="0" />
      <path
         style="fill:#3b75a7;fill-opacity:1;fill-rule:evenodd;stroke:none;stroke-width:2.87616;stroke-linecap:butt;stroke-linejoin:round;stroke-miterlimit:4;stroke-dasharray:none;stroke-dashoffset:0;stroke-opacity:1;paint-order:stroke fill markers"
         d="m -6.5757222,278.18396 c -4.8954758,-1.91372 -12.5651328,-7.50784 -16.9711188,-12.37847 -4.651269,-5.14171 -7.337921,-8.87288 -15.224848,-21.1438 -7.780827,-12.10581 -11.491588,-16.59128 -17.464982,-21.11091 -7.505121,-5.67854 -18.95044,-10.09137 -26.202861,-10.10265 -7.124392,-0.0108 -12.162475,-0.83264 -11.74695,-1.91556 0.203453,-0.53012 1.117342,-1.12875 2.030977,-1.33024 0.913572,-0.20149 5.085492,-1.26122 9.270912,-2.35498 6.338722,-1.6564 9.287898,-1.98972 17.655759,-1.99549 19.591221,-0.0133 34.422347,6.51771 48.599002,21.40164 12.2735815,12.88596 18.5949372,27.91896 18.5949372,44.2209 v 8.18596 l -2.47318542,-0.0355 c -1.36028048,-0.0197 -4.09072888,-0.66791 -6.06764198,-1.44072 z"
         id="path10892-1-3-7"
         inkscape:connector-curvature="0" />
      <path
         style="fill:#f0af12;fill-opacity:1;fill-rule:evenodd;stroke:none;stroke-width:10.0624;stroke-linecap:butt;stroke-linejoin:round;stroke-miterlimit:4;stroke-dasharray:none;stroke-dashoffset:0;stroke-opacity:1;paint-order:stroke fill markers"
         d="m -149.53239,223.72417 c -0.73214,-0.28303 -8.02027,-5.26678 -16.19584,-11.07501 -9.78462,-6.95136 -14.86467,-11.10479 -14.86467,-12.15331 0,-2.43617 18.18302,-20.18435 27.58423,-26.92458 34.7145,-24.88864 78.5966,-33.26979 119.39553,-22.80363 22.690198,5.82072 42.0134098,16.32965 60.829213,33.08198 9.836474,8.75774 12.150187,11.76932 10.367823,13.49506 -2.826161,2.73637 -31.4063584,21.70954 -32.7021348,21.70954 -0.7841625,0 -2.8019697,-1.43415 -4.48402516,-3.187 C -4.7613922,210.49094 -16.464794,202.25395 -24.09541,198.62865 c -40.396686,-19.19244 -83.14451,-12.35842 -115.94281,18.53557 -4.21265,3.96806 -7.77268,7.18313 -7.91119,7.14459 -0.1385,-0.0385 -0.85084,-0.30162 -1.58298,-0.58464 z"
         id="path10896-6-5-1"
         inkscape:connector-curvature="0" />
      <path
         style="fill:#f0af12;fill-opacity:1;fill-rule:evenodd;stroke:none;stroke-width:10.0624;stroke-linecap:butt;stroke-linejoin:round;stroke-miterlimit:4;stroke-dasharray:none;stroke-dashoffset:0;stroke-opacity:1;paint-order:stroke fill markers"
         d="m -199.44838,346.62418 c -13.55834,-30.54335 -15.80675,-65.34976 -6.33808,-98.11666 2.90087,-10.03865 10.05668,-26.79097 11.44385,-26.79097 1.05679,0 29.78485,19.38281 32.34119,21.82059 1.11927,1.06735 0.86646,2.46747 -1.94649,10.77982 -8.04019,23.75905 -8.09506,44.54747 -0.18003,68.20464 3.47706,10.39253 3.46724,10.45578 -2.14377,13.8066 -1.77549,1.06028 -8.64756,5.45795 -15.27127,9.77259 -6.62372,4.31464 -12.63089,7.84479 -13.34926,7.84479 -0.78171,0 -2.61104,-2.93959 -4.55614,-7.3214 z"
         id="path10898-4-6-2"
         inkscape:connector-curvature="0" />
      <path
         style="fill:#f0af12;fill-opacity:1;fill-rule:evenodd;stroke:none;stroke-width:10.0624;stroke-linecap:butt;stroke-linejoin:round;stroke-miterlimit:4;stroke-dasharray:none;stroke-dashoffset:0;stroke-opacity:1;paint-order:stroke fill markers"
         d="m 35.980381,349.89105 c -8.521214,-5.57584 -15.792463,-10.67279 -16.158327,-11.32656 -0.383256,-0.68484 0.406487,-3.45476 1.863202,-6.53499 6.914211,-14.62008 9.743373,-27.21151 9.789806,-43.57026 0.04206,-14.82248 -2.958053,-28.79582 -8.939247,-41.63541 -1.411606,-3.03024 -2.566555,-6.13416 -2.566555,-6.89763 0,-1.31891 3.828169,-4.00157 24.319997,-17.04267 7.052613,-4.48832 9.039162,-5.38684 10.051791,-4.54643 2.908553,2.41388 11.406912,23.11761 14.420326,35.13086 8.214126,32.74631 4.85272,66.14858 -9.821225,97.59343 -3.154951,6.76077 -4.658454,9.07977 -5.855748,9.03194 -0.886,-0.0354 -8.582806,-4.62644 -17.10402,-10.20228 z"
         id="path10900-1-2-5"
         inkscape:connector-curvature="0" />
      <path
         style="fill:#f0af12;fill-opacity:1;fill-rule:evenodd;stroke:none;stroke-width:10.0624;stroke-linecap:butt;stroke-linejoin:round;stroke-miterlimit:4;stroke-dasharray:none;stroke-dashoffset:0;stroke-opacity:1;paint-order:stroke fill markers"
         d="m -49.02945,429.7059 c -7.687463,1.29332 -24.338083,1.59675 -33.941161,0.61852 -24.581939,-2.50406 -45.669949,-10.147 -66.603669,-24.13919 -10.42317,-6.9669 -30.13118,-25.79799 -30.13118,-28.79047 0,-1.64208 2.94885,-4.03797 15.2476,-12.38842 8.38618,-5.69395 15.77613,-10.55545 16.42213,-10.80334 0.66076,-0.25355 4.62814,2.83586 9.06985,7.06272 4.34243,4.13238 10.43051,9.18854 13.52908,11.23591 21.27411,14.05679 46.283279,19.51307 71.748276,15.6534 20.10302,-4.20073 39.150032,-13.01626 53.89234814,-26.33784 2.06349316,-1.88891 4.33861526,-3.43439 5.05581946,-3.43439 1.3670068,0 28.9972094,18.43656 31.9407524,21.31281 1.672964,1.63472 1.644729,1.72472 -1.720475,5.48299 -16.831886,18.79795 -45.3131423,35.83756 -69.345128,41.48744 -7.948754,2.6471 -9.573238,2.51045 -15.164243,3.03986 z"
         id="path10902-0-3-7"
         inkscape:connector-curvature="0"
         sodipodi:nodetypes="csssscscccssccc" />
    </g>
  </g>
</svg>
